<?xml version="1.0" encoding="utf-8"?>
<!-- Generator: Adobe Illustrator 22.1.0, SVG Export Plug-In . SVG Version: 6.00 Build 0)  -->
<svg version="1.1" class="home" xmlns="http://www.w3.org/2000/svg" xmlns:xlink="http://www.w3.org/1999/xlink" x="0px" y="0px"
	 viewBox="0 0 500 500" style="enable-background:new 0 0 500 500;" xml:space="preserve">
<g>
	<rect x="125" y="242" class="house" width="250" height="250"/>
</g>
<g class="roof">
	<polygon class="chimney" points="73.1,290.5 250.4,115.4 427.8,290.5 	"/>
	<path class="chimney" d="M250.4,116.1L426.6,290H74.3L250.4,116.1 M250.4,114.7L71.8,291H429L250.4,114.7L250.4,114.7z"/>
</g>
<g>
	<rect x="133.5" y="144.5" class="chimney" width="65" height="85"/>
	<path class="roof" d="M198,145v84h-64v-84H198 M199,144h-66v86h66V144L199,144z"/>
</g>
<g class="right-window">
	<rect x="189" y="356" class="pane" width="28" height="27.1"/>
	<rect x="157" y="356" class="pane" width="28" height="27.1"/>
	<rect x="157" y="326" class="pane" width="28" height="27.1"/>
	<rect x="189" y="326" class="pane" width="28" height="27.1"/>
</g>
<g class="left-window">
	<rect x="310" y="356" class="pane" width="28" height="27.1"/>
	<rect x="278" y="356" class="pane" width="28" height="27.1"/>
	<rect x="310" y="326" class="pane" width="28" height="27.1"/>
	<rect x="278" y="326" class="pane" width="28" height="27.1"/>
</g>
</svg>
