<?xml version="1.0" encoding="utf-8"?>
<!-- Generator: Adobe Illustrator 22.1.0, SVG Export Plug-In . SVG Version: 6.00 Build 0)  -->
<svg version="1.1" id="Layer_1" xmlns="http://www.w3.org/2000/svg" xmlns:xlink="http://www.w3.org/1999/xlink" x="0px" y="0px"
	 viewBox="0 0 98.9 100" style="enable-background:new 0 0 98.9 100;" xml:space="preserve">

<path class="sun" d="M72.2,66.8c3.7-5.1,5.5-11,5.5-16.8c0-8.8-4-17.4-11.5-23c-5-3.7-10.9-5.5-16.6-5.5c-8.7,0-17.2,4-22.8,11.6
	c-3.7,5.1-5.5,11-5.5,16.8c0,8.8,4,17.4,11.5,23c5,3.7,10.9,5.5,16.6,5.5C58.1,78.5,66.7,74.4,72.2,66.8z"/>

<path class="flare" d="M45.2,17.9L45.2,17.9l1.4-0.1c0.9-0.1,1.9-0.1,2.9-0.1c1,0,1.9,0,2.9,0.1l1.4,0.1l0-0.1c0.3,0,0.5,0.1,0.8,0.1l1.3,0.2
	L49.5,0l-0.8,2.2l-5.7,16.1l1.3-0.2C44.7,18,44.9,18,45.2,17.9z"/>
<path class="flare" d="M68.8,24.3L68.8,24.3l0.3,0.2c0.5,0.4,1,0.9,1.5,1.4c0.9,0.8,1.8,1.7,2.7,2.7c0.4,0.5,0.9,1,1.3,1.5l0.3,0.4l0,0
	c0.2,0.2,0.3,0.4,0.5,0.6l0.8,1.1l8.3-17.6l-2.1,1L67.1,23l1.1,0.8C68.4,23.9,68.6,24.1,68.8,24.3z"/>
<path class="flare" d="M80.9,56.5L98.9,50l-18.1-6.5l0.2,1.4c0,0.3,0.1,0.5,0.1,0.8l-0.1,0l0.1,1.5c0.1,1,0.1,1.9,0.1,2.9c0,1-0.1,1.9-0.1,2.9
	l-0.1,1.5l0.1,0c0,0.3-0.1,0.5-0.1,0.8L80.9,56.5z"/>
<path class="flare" d="M75.4,68.9c-0.1,0.2-0.3,0.4-0.5,0.6l0-0.1L74,70.6c-1,1.2-2.1,2.4-3.3,3.4c-0.6,0.5-1.2,1.1-1.8,1.6
	c-0.2,0.2-0.4,0.3-0.6,0.5L67.2,77l17.3,8.4l-8.3-17.5L75.4,68.9z"/>
<path class="flare" d="M53.7,82.1L53.7,82.1l-1.4,0.1c-0.9,0.1-1.9,0.1-2.9,0.1c-1,0-1.9-0.1-2.9-0.1L45.2,82l0,0.1c-0.3,0-0.5-0.1-0.8-0.1
	l-1.3-0.2l0.5,1.3l6,17l6.4-18.3L54.5,82C54.3,82,54,82,53.7,82.1z"/>
<path class="flare" d="M30,75.7L30,75.7l-1-1c-1.4-1.2-2.8-2.6-4-4l-0.9-1.1l0,0.1c-0.2-0.2-0.4-0.5-0.5-0.7l-0.8-1.1l-0.6,1.2l-7.6,16.2L31.8,77
	l-1.1-0.8C30.5,76.1,30.3,75.9,30,75.7z"/>
<path class="flare" d="M17.8,55.1c0-0.3-0.1-0.5-0.1-0.8l0.1,0l-0.1-1.4c-0.1-0.9-0.1-1.9-0.1-2.8c0-1,0-2,0.1-3l0.1-1.5l-0.1,0
	c0-0.3,0.1-0.5,0.1-0.8l0.2-1.4l-1.3,0.5L0,49.9l18.1,6.5L17.8,55.1z"/>
<path class="flare" d="M22.7,32.2l0.8-1.1c0.2-0.2,0.4-0.5,0.5-0.7l0,0.1l0.9-1.1c1.2-1.5,2.6-2.9,4.1-4.1l1.1-0.9l-0.1,0c0.2-0.2,0.4-0.3,0.6-0.5
	l1.1-0.8l-17.3-8.4l1,2.1L22.7,32.2z"/>
</svg>
